<?xml version="1.0" standalone="no"?>
<!DOCTYPE svg PUBLIC "-//W3C//DTD SVG 20010904//EN"
 "http://www.w3.org/TR/2001/REC-SVG-20010904/DTD/svg10.dtd">
<svg version="1.0" xmlns="http://www.w3.org/2000/svg"
 width="764.000000pt" height="1280.000000pt" viewBox="0 0 764.000000 1280.000000"
 preserveAspectRatio="xMidYMid meet">
<metadata>
Created by potrace 1.15, written by Peter Selinger 2001-2017
</metadata>
<g transform="translate(0.000000,1280.000000) scale(0.100000,-0.100000)"
fill="#000000" stroke="none">
<path d="M4141 12789 c-81 -14 -184 -53 -237 -89 l-48 -32 -100 23 c-95 22
-126 23 -540 27 -291 2 -468 0 -525 -8 -92 -12 -217 -41 -292 -67 l-46 -16
-59 36 c-111 67 -169 81 -344 82 -227 0 -379 -40 -645 -170 -253 -124 -486
-290 -705 -501 -168 -163 -247 -298 -345 -598 -160 -484 -255 -1242 -255
-2031 0 -682 74 -1258 189 -1471 61 -112 129 -140 216 -90 123 73 256 342 550
1116 53 140 98 256 99 257 0 1 2 -44 3 -100 4 -240 100 -457 293 -660 92 -97
242 -215 356 -280 51 -29 73 -47 69 -57 -2 -8 -16 -46 -29 -85 -14 -39 -26
-92 -26 -121 0 -45 -5 -58 -48 -115 -283 -375 -445 -774 -529 -1299 -14 -90
-17 -231 -22 -1005 l-6 -900 -60 -6 c-172 -16 -291 -99 -364 -252 -98 -204
-108 -406 -59 -1182 13 -218 21 -455 22 -660 0 -286 -2 -336 -22 -465 -30
-187 -67 -356 -147 -661 -78 -294 -101 -401 -116 -536 -29 -251 51 -428 237
-525 143 -74 317 -111 539 -112 178 -1 229 10 385 86 65 31 106 46 108 39 10
-29 97 -123 154 -166 302 -228 802 -258 1147 -69 124 68 233 172 272 257 12
27 29 37 29 16 0 -25 94 -142 153 -190 77 -62 236 -141 340 -168 276 -71 565
-45 802 71 67 34 195 127 222 163 l18 24 90 -32 c85 -30 98 -32 225 -31 148 1
332 26 502 69 256 65 393 153 461 295 29 60 32 73 31 165 -1 131 -21 203 -144
530 -218 578 -259 778 -246 1203 l6 213 140 155 c1000 1107 1643 2617 1780
4179 6 66 13 237 17 380 14 621 -67 1208 -235 1705 -72 211 -69 205 -90 189
-53 -41 -51 -34 -31 -112 25 -97 74 -347 93 -477 86 -584 65 -1253 -60 -1895
-201 -1037 -647 -2035 -1244 -2785 -87 -109 -274 -323 -309 -354 l-21 -19 0
95 c0 222 -40 443 -105 574 -63 129 -147 204 -283 254 l-77 28 -6 913 c-6 993
-4 960 -66 1239 -88 398 -256 765 -489 1068 -43 56 -64 91 -64 110 0 47 -29
144 -60 199 l-29 51 43 26 c141 82 322 243 417 369 183 243 243 515 174 787
-48 190 -203 416 -393 573 l-33 27 54 112 c30 62 63 135 73 161 l17 48 30 -48
c111 -177 305 -553 674 -1308 237 -484 355 -686 465 -802 178 -184 301 -86
358 287 35 228 37 720 5 1120 -85 1065 -316 1995 -601 2427 -74 112 -134 174
-256 270 -336 262 -700 444 -1027 513 -110 24 -338 34 -420 19z m-2627 -2797
c-91 -75 -177 -158 -220 -211 -26 -33 -50 -59 -51 -57 -5 5 81 203 149 346
l60 125 45 -90 45 -89 -28 -24z"/>
</g>
</svg>
